<?xml version="1.0" encoding="UTF-8"?>
<!DOCTYPE svg PUBLIC "-//W3C//DTD SVG 1.1//EN" "http://www.w3.org/Graphics/SVG/1.1/DTD/svg11.dtd">
<svg xmlns="http://www.w3.org/2000/svg" version="1.1" width="356px" height="282px" style="shape-rendering: geometricprecision; text-rendering: geometricprecision; image-rendering: optimizequality; fill-rule: evenodd; clip-rule: evenodd" xmlns:xlink="http://www.w3.org/1999/xlink">
<g><path style="opacity: 1" fill="#000000" d="M 71.5,3.5 C 97.0226,0.939745 121.689,4.27308 145.5,13.5C 146.66,15.1459 147.327,16.9792 147.5,19C 144.68,33.3622 143.347,47.8622 143.5,62.5C 149.82,61.1691 156.154,59.8358 162.5,58.5C 166.894,59.8648 170.894,62.0315 174.5,65C 180.759,71.2551 186.259,78.0885 191,85.5C 200.087,101.339 208.92,117.339 217.5,133.5C 242.112,99.3741 265.778,64.5408 288.5,29C 258.804,28.5404 229.137,29.2071 199.5,31C 197.061,31.7739 195.227,33.2739 194,35.5C 192.332,43.5076 190.666,51.5076 189,59.5C 184.921,60.6295 180.755,60.7961 176.5,60C 175.941,59.2753 175.608,58.4419 175.5,57.5C 176.145,41.2842 176.812,25.1176 177.5,9C 234.847,9.16887 292.18,9.0022 349.5,8.5C 349.666,12.8461 349.499,17.1794 349,21.5C 314.983,66.8621 283.317,113.862 254,162.5C 250.394,169.379 247.061,176.379 244,183.5C 243.5,191.827 243.334,200.16 243.5,208.5C 263.486,207.755 283.486,207.255 303.5,207C 311.622,206.849 319.622,205.849 327.5,204C 329.938,201.705 331.438,198.872 332,195.5C 333.679,187.786 335.512,180.12 337.5,172.5C 341.783,171.508 346.116,171.174 350.5,171.5C 349.096,190.209 347.429,208.876 345.5,227.5C 311.341,228.468 277.341,228.801 243.5,228.5C 243.117,238.622 243.951,248.622 246,258.5C 246.833,259.333 247.667,260.167 248.5,261C 254.793,262.023 261.126,262.689 267.5,263C 268,263.5 268.5,264 269,264.5C 269.793,268.423 269.626,272.256 268.5,276C 262.167,276.167 255.833,276.333 249.5,276.5C 224.173,275.933 198.84,275.766 173.5,276C 172.374,272.256 172.207,268.423 173,264.5C 173.5,264 174,263.5 174.5,263C 180.874,262.689 187.207,262.023 193.5,261C 194.333,260.167 195.167,259.333 196,258.5C 197.984,248.616 198.817,238.616 198.5,228.5C 185.5,228.5 172.5,228.5 159.5,228.5C 159.334,223.821 159.501,219.155 160,214.5C 170.553,200.948 180.719,187.114 190.5,173C 175.622,146.065 159.122,120.232 141,95.5C 136.801,90.9657 132.301,86.799 127.5,83C 123.152,82.5355 118.819,82.0355 114.5,81.5C 114.174,77.1161 114.508,72.7828 115.5,68.5C 122.447,66.8104 129.447,65.3104 136.5,64C 134.19,63.5034 131.857,63.3367 129.5,63.5C 129.374,54.7221 128.541,46.0554 127,37.5C 118.823,28.5438 108.657,23.3772 96.5,22C 79.1216,18.6332 63.955,22.7999 51,34.5C 40.2117,49.3175 39.8784,64.3175 50,79.5C 56.8598,85.01 64.6931,88.51 73.5,90C 91.9957,92.9156 110.329,96.5822 128.5,101C 148.148,108.771 158.648,123.271 160,144.5C 159.731,193.446 135.231,221.28 86.5,228C 57.8301,231.306 30.6634,226.472 5,213.5C 4.12515,212.127 3.62515,210.627 3.5,209C 6.16151,192.717 7.82817,176.384 8.5,160C 12.7548,159.204 16.9215,159.371 21,160.5C 21.298,169.197 21.9646,177.864 23,186.5C 29.0508,195.54 37.2174,202.04 47.5,206C 59.4844,210.248 71.8178,211.581 84.5,210C 106.963,205.123 118.963,191.123 120.5,168C 119.473,151.303 110.807,140.97 94.5,137C 78.0885,134.051 61.7551,130.718 45.5,127C 17.9354,119.746 4.26874,101.746 4.5,73C 5.0363,42.9044 19.0363,21.9044 46.5,10C 54.7616,7.01919 63.0949,4.85252 71.5,3.5 Z"></path></g>
</svg>
