<?xml version="1.0" encoding="UTF-8"?>
<!DOCTYPE svg PUBLIC "-//W3C//DTD SVG 1.1//EN" "http://www.w3.org/Graphics/SVG/1.1/DTD/svg11.dtd">
<svg xmlns="http://www.w3.org/2000/svg" version="1.1" width="571px" height="448px" style="shape-rendering: geometricprecision; text-rendering: geometricprecision; image-rendering: optimizequality; fill-rule: evenodd; clip-rule: evenodd" xmlns:xlink="http://www.w3.org/1999/xlink">
<g><path style="opacity: .932" fill="#fefffe" d="M 111.5,0.5 C 135.857,0.131511 160.19,0.631511 184.5,2C 201.225,4.25006 217.225,9.08339 232.5,16.5C 234.062,18.9573 235.062,21.624 235.5,24.5C 231.136,47.6117 228.803,70.945 228.5,94.5C 236.415,92.6688 244.415,90.8355 252.5,89C 256.5,88.3333 260.5,88.3333 264.5,89C 274.79,94.6108 283.623,102.111 291,111.5C 312.562,141.946 331.062,174.279 346.5,208.5C 385.715,153.956 423.048,98.2896 458.5,41.5C 438.831,41.3334 419.164,41.5 399.5,42C 372.507,42.9395 345.507,44.1062 318.5,45.5C 314.625,46.5391 311.792,48.8724 310,52.5C 306.684,65.2239 304.018,78.2239 302,91.5C 294.914,92.6456 287.747,92.8123 280.5,92C 278.078,89.2988 277.911,86.4654 280,83.5C 280.333,58.8333 280.667,34.1667 281,9.5C 281.5,9 282,8.5 282.5,8C 331.849,7.1065 381.182,7.6065 430.5,9.5C 473.178,7.2849 515.845,6.95157 558.5,8.5C 559.664,15.4763 559.831,22.4763 559,29.5C 523.459,78.476 488.459,127.809 454,177.5C 437.116,205.246 420.283,233.079 403.5,261C 399.167,270.167 394.833,279.333 390.5,288.5C 389.555,301.81 389.221,315.143 389.5,328.5C 428.526,328.158 467.526,326.991 506.5,325C 512.151,323.87 517.818,322.703 523.5,321.5C 525.306,319.624 526.639,317.458 527.5,315C 531.58,299.96 535.246,284.793 538.5,269.5C 545.833,269.5 553.167,269.5 560.5,269.5C 560.411,280.184 559.911,290.85 559,301.5C 557.298,321.84 555.131,342.173 552.5,362.5C 503.166,362.667 453.832,362.5 404.5,362C 399.426,361.04 394.426,360.873 389.5,361.5C 389.346,373.347 389.679,385.18 390.5,397C 390.708,400.988 391.541,404.822 393,408.5C 394.32,410.654 396.153,412.154 398.5,413C 408.404,414.847 418.404,416.014 428.5,416.5C 429.192,417.025 429.692,417.692 430,418.5C 430.81,425.082 430.643,431.582 429.5,438C 377.571,437.762 325.571,437.929 273.5,438.5C 273.17,431.8 273.503,425.134 274.5,418.5C 275.167,417.833 275.833,417.167 276.5,416.5C 286.653,416.014 296.653,414.847 306.5,413C 308.916,412.339 310.582,410.839 311.5,408.5C 312.862,401.809 314.029,395.142 315,388.5C 315.5,379.84 315.666,371.173 315.5,362.5C 294.591,362.827 273.758,362.493 253,361.5C 252.169,353.812 252.335,346.145 253.5,338.5C 270.481,317.202 286.481,295.202 301.5,272.5C 278.775,229.153 252.775,188.153 223.5,149.5C 216.796,142.461 209.796,135.794 202.5,129.5C 197.553,128.717 192.553,128.217 187.5,128C 185.238,127.358 183.071,126.525 181,125.5C 180.833,122 180.667,118.5 180.5,115C 180.575,110.977 181.242,107.144 182.5,103.5C 190.992,101.35 199.659,99.6832 208.5,98.5C 207.372,97.7379 206.205,97.0712 205,96.5C 204.287,84.1572 203.454,71.8239 202.5,59.5C 201.719,58.2713 201.219,56.938 201,55.5C 188.223,41.6673 172.39,33.5006 153.5,31C 140.649,30.2339 127.816,30.4006 115,31.5C 85.3257,39.0076 69.159,58.0076 66.5,88.5C 67.5301,96.7228 69.5301,104.723 72.5,112.5C 78.1721,122.418 86.3388,129.418 97,133.5C 107.464,136 117.964,138.667 128.5,141.5C 152.026,144.636 175.359,148.802 198.5,154C 212.687,158.737 225.187,166.237 236,176.5C 242.97,184.89 248.137,194.39 251.5,205C 264.339,260.331 248.339,304.997 203.5,339C 182.782,351.354 160.449,359.02 136.5,362C 94.6104,365.978 54.2771,359.978 15.5,344C 11.6034,341.957 7.93674,339.624 4.5,337C 3.93719,334.876 3.60386,332.709 3.5,330.5C 6.86649,303.929 9.19982,277.429 10.5,251C 17.8834,250.201 25.2167,250.368 32.5,251.5C 33.1331,265.534 34.1331,279.534 35.5,293.5C 42.2341,305.062 51.7341,313.728 64,319.5C 87.0468,331.341 111.38,335.007 137,330.5C 160.065,325.418 176.065,312.085 185,290.5C 187.42,281.884 189.254,273.217 190.5,264.5C 189.953,248.555 183.619,235.555 171.5,225.5C 163.534,220.312 154.867,216.645 145.5,214.5C 127.692,210.708 109.692,207.541 91.5,205C 74.8854,201.211 58.7187,196.045 43,189.5C 24.8876,178.256 13.2209,162.256 8,141.5C 0.408768,107.911 5.57543,76.5778 23.5,47.5C 39.972,26.0917 61.3054,11.925 87.5,5C 95.6346,3.45773 103.635,1.95773 111.5,0.5 Z"></path></g>
</svg>
